# xmcd
#
# Track frame offsets:
#	150
#	16537
#	34053
#	47650
#	63720
#	80169
#	94625
#	111817
#	129608
#	145442
#	161139
#	178769
#	194469
#	209974
#	235054
#
# Disc length: 4440
#
# Revision: 2
# Processed by: cddbd v1.5.1PL0 Copyright (c) Steve Scherf et al.
# Submitted via: audiograbber 1.83.01
# Normalized: r1:DSETVAR1
#
DISCID=dc11560f
DTITLE=Various Artist - Goldene Schlagerparade 5/2003
DYEAR=2003
DGENRE=Schlager
TTITLE0=Wolfgang Ambros - Wieder verliebt
TTITLE1=Andrea Berg - Ein Tag mir dir im Pardies
TTITLE2=Michael Hoffmann - Wir hauen einfach ab
TTITLE3=Marlena Martinelli - Wenn Männer wüssten
TTITLE4=Andreas Rauch - Mit dir fängt der Sommer an
TTITLE5=Petra Frey - Hey Amigo tanz mit mir
TTITLE6=Jens Bogner - Das kann doch jedem mal passieren
TTITLE7=Trenkwalder - Wunderfrau
TTITLE8=Simone - Viel zu oft
TTITLE9=René Meyer - Gib mir Liebe
TTITLE10=Nini de Angelo and Francine Jordi - Und wenn ich abends einschlaf
TTITLE11=Nik P - Grösser als alles
TTITLE12=Gilbert - Verdammt scharfe Nacht
TTITLE13=Romana Rossi - Mit dir fällt Schnee im Juli
TTITLE14=Data - Daten-CD
EXTD=
EXTT0=
EXTT1=
EXTT2=
EXTT3=
EXTT4=
EXTT5=
EXTT6=
EXTT7=
EXTT8=
EXTT9=
EXTT10=
EXTT11=
EXTT12=
EXTT13=
EXTT14=
PLAYORDER=
